<svg width="1294" height="158" viewBox="0 0 1294 158" fill="none" xmlns="http://www.w3.org/2000/svg">
<path fill-rule="evenodd" clip-rule="evenodd" d="M331.026 83.6049C331.026 67.2845 317.317 58.0969 295.466 58.0969H188.967V157.661H218.996V119.471H297.358C319.227 119.471 331.026 111.887 331.026 94.5399V83.6049ZM218.996 101.241H291.846C303.645 101.241 304.96 97.2963 304.96 90.1626V86.2536C304.96 79.2465 303.213 75.4632 290.387 75.4632H219.176L218.996 101.241Z" fill="black"/>
<path d="M495.676 157.644H459.881L443.993 135.847H351.382L367.288 118.86H431.635L400.669 76.3459L418.953 53.8642L495.676 157.644Z" fill="black"/>
<path d="M115.163 58.0969C131.772 58.0969 141.248 66.2575 144.166 75.4627H33.0906V96.8814H119.234C136.564 97.8902 147.066 105.312 147.066 119.309V135.198C147.066 150.654 137.897 157.643 119.523 157.643H31.6315C14.8784 157.643 5.25855 151.374 2.48438 138.944H119.991V116.175H32.658C16.4815 116.265 5.54686 108.825 5.54676 95.7107V79.9662C5.54676 64.9424 16.1754 58.0969 34.6939 58.0969H115.163Z" fill="black"/>
<path d="M635.773 58.0788C651.805 58.0789 663.172 63.6274 666.091 75.4447H553.394V138.944H666.091C662.884 152.113 656.021 157.643 636.637 157.643H551.376C536.659 157.643 522.806 151.662 522.806 135.774V79.9481C522.806 64.0597 536.659 58.0789 551.376 58.0788H635.773Z" fill="black"/>
<path d="M798.637 108.587H738.037V138.941H841.925V157.64H707.485V91.5281H798.637V108.587Z" fill="black"/>
<path d="M843.348 75.4627H707.485V58.0969H843.348V75.4627Z" fill="black"/>
<path d="M1291.42 0.485005C1243.91 4.35808 1057.19 27.5063 927.727 157.658H879.683L885.051 152.308C912.145 126.134 1032.03 15.2025 1291.42 0.34082V0.485005Z" fill="black"/>
<path d="M1128.81 157.658H1091.16L1016.96 103.651C1023.8 99.3515 1030.68 95.2564 1037.58 91.3564L1128.81 157.658Z" fill="black"/>
<path d="M1068.63 157.659H1030.99L1019.57 149.354H955.827C960.315 145.369 964.858 141.5 969.449 137.745H1003.6L985.926 124.891C992.242 120.191 998.628 115.689 1005.06 111.377L1068.63 157.659Z" fill="black"/>
<path d="M931.635 58.0739L960.66 79.1672C953.436 83.4208 946.675 87.6309 940.365 91.7495L894.029 58.0558L931.635 58.0739Z" fill="black"/>
</svg>
