<svg width="1294" height="158" viewBox="0 0 1294 158" fill="none" xmlns="http://www.w3.org/2000/svg">
<path fill-rule="evenodd" clip-rule="evenodd" d="M330.929 83.6049C330.929 67.2845 317.22 58.0969 295.369 58.0969H188.869V157.661H218.898V119.471H297.26C319.13 119.471 330.929 111.887 330.929 94.5399V83.6049ZM218.898 101.241H291.748C303.547 101.241 304.862 97.2963 304.862 90.1626V86.2536C304.862 79.2465 303.115 75.4632 290.289 75.4632H219.079L218.898 101.241Z" fill="white"/>
<path d="M495.578 157.644H459.784L443.895 135.847H351.284L367.191 118.86H431.537L400.571 76.3459L418.856 53.8642L495.578 157.644Z" fill="white"/>
<path d="M115.065 58.0969C131.674 58.0969 141.15 66.2575 144.068 75.4627H32.9929V96.8814H119.137C136.466 97.8902 146.968 105.312 146.968 119.309V135.198C146.968 150.654 137.799 157.643 119.425 157.643H31.5338C14.7807 157.643 5.16089 151.374 2.38672 138.944H119.893V116.175H32.5604C16.3838 116.265 5.4492 108.825 5.44911 95.7107V79.9662C5.44911 64.9424 16.0777 58.0969 34.5962 58.0969H115.065Z" fill="white"/>
<path d="M635.675 58.0788C651.708 58.0789 663.075 63.6274 665.993 75.4447H553.296V138.944H665.993C662.786 152.113 655.923 157.643 636.54 157.643H551.279C536.561 157.643 522.708 151.662 522.708 135.774V79.9481C522.708 64.0597 536.561 58.0789 551.279 58.0788H635.675Z" fill="white"/>
<path d="M798.539 108.587H737.939V138.941H841.827V157.64H707.387V91.5281H798.539V108.587Z" fill="white"/>
<path d="M843.25 75.4627H707.387V58.0969H843.25V75.4627Z" fill="white"/>
<path d="M1291.32 0.485005C1243.81 4.35808 1057.1 27.5063 927.63 157.658H879.586L884.954 152.308C912.047 126.134 1031.93 15.2025 1291.32 0.34082V0.485005Z" fill="white"/>
<path d="M1128.71 157.658H1091.06L1016.87 103.651C1023.7 99.3515 1030.58 95.2564 1037.49 91.3564L1128.71 157.658Z" fill="white"/>
<path d="M1068.53 157.659H1030.9L1019.48 149.354H955.729C960.217 145.369 964.761 141.5 969.352 137.745H1003.5L985.828 124.891C992.144 120.191 998.53 115.689 1004.97 111.377L1068.53 157.659Z" fill="white"/>
<path d="M931.537 58.0739L960.562 79.1672C953.338 83.4208 946.577 87.6309 940.267 91.7495L893.931 58.0558L931.537 58.0739Z" fill="white"/>
</svg>
