<svg width="1920" height="1080" viewBox="0 0 1920 1080" fill="none" xmlns="http://www.w3.org/2000/svg">
<rect width="1920" height="1080" fill="white"/>
<path d="M1433.19 395.684C1345.69 402.818 1001.73 445.46 763.235 685.217H674.731L684.62 675.362C734.53 627.145 955.372 422.795 1433.19 395.418V395.684Z" fill="black"/>
<path d="M1133.66 685.217H1064.29L927.618 585.729C940.213 577.808 952.888 570.265 965.603 563.08L1133.66 685.217Z" fill="black"/>
<path d="M1022.8 685.218H953.463L932.429 669.919H814.998C823.265 662.578 831.635 655.452 840.092 648.534H902.995L870.444 624.856C882.079 616.198 893.843 607.905 905.701 599.961L1022.8 685.218Z" fill="black"/>
<path d="M770.433 501.77L823.9 540.626C810.594 548.462 798.139 556.218 786.514 563.805L701.157 501.736L770.433 501.77Z" fill="black"/>
</svg>
