<svg width="1920" height="1080" viewBox="0 0 1920 1080" fill="none" xmlns="http://www.w3.org/2000/svg">
<rect width="1920" height="1080" fill="black"/>
<path d="M1433.19 388.934C1345.69 396.068 1001.73 438.71 763.235 678.467H674.731L684.62 668.612C734.53 620.395 955.372 416.045 1433.19 388.668V388.934Z" fill="white"/>
<path d="M1133.66 678.467H1064.29L927.618 578.979C940.213 571.058 952.888 563.515 965.603 556.33L1133.66 678.467Z" fill="white"/>
<path d="M1022.8 678.468H953.463L932.429 663.169H814.998C823.265 655.828 831.635 648.702 840.092 641.784H902.995L870.444 618.106C882.079 609.448 893.843 601.155 905.701 593.211L1022.8 678.468Z" fill="white"/>
<path d="M770.433 495.02L823.9 533.876C810.594 541.712 798.139 549.468 786.514 557.055L701.157 494.986L770.433 495.02Z" fill="white"/>
</svg>
